<mxfile host="app.diagrams.net" modified="2024-03-28T03:01:21.108Z" agent="Mozilla/5.0 (Macintosh; Intel Mac OS X 10.15; rv:124.0) Gecko/20100101 Firefox/124.0" etag="IHUO9yaP4dZHSEBcQ7j2" version="24.2.0" type="device">
  <diagram name="Page-1" id="II-qb9AGLPh9ISnCJuqe">
    <mxGraphModel dx="1306" dy="837" grid="1" gridSize="10" guides="1" tooltips="1" connect="1" arrows="1" fold="1" page="1" pageScale="1" pageWidth="850" pageHeight="1100" math="0" shadow="0">
      <root>
        <mxCell id="0" />
        <mxCell id="1" parent="0" />
        <mxCell id="6StfZbnvzzsDaAcNII9Y-1" value="&lt;div&gt;Garage Door&lt;/div&gt;&lt;div&gt;Opener&lt;br&gt;&lt;/div&gt;" style="whiteSpace=wrap;html=1;aspect=fixed;fillColor=#d5e8d4;strokeColor=#82b366;" vertex="1" parent="1">
          <mxGeometry x="280" y="160" width="80" height="80" as="geometry" />
        </mxCell>
        <mxCell id="6StfZbnvzzsDaAcNII9Y-5" style="edgeStyle=orthogonalEdgeStyle;rounded=0;orthogonalLoop=1;jettySize=auto;html=1;exitX=1;exitY=0.25;exitDx=0;exitDy=0;entryX=0;entryY=0.25;entryDx=0;entryDy=0;endArrow=none;endFill=0;" edge="1" parent="1" source="6StfZbnvzzsDaAcNII9Y-2" target="6StfZbnvzzsDaAcNII9Y-1">
          <mxGeometry relative="1" as="geometry" />
        </mxCell>
        <mxCell id="6StfZbnvzzsDaAcNII9Y-6" style="edgeStyle=orthogonalEdgeStyle;rounded=0;orthogonalLoop=1;jettySize=auto;html=1;exitX=1;exitY=0.75;exitDx=0;exitDy=0;entryX=0;entryY=0.75;entryDx=0;entryDy=0;endArrow=none;endFill=0;" edge="1" parent="1" source="6StfZbnvzzsDaAcNII9Y-2" target="6StfZbnvzzsDaAcNII9Y-1">
          <mxGeometry relative="1" as="geometry" />
        </mxCell>
        <mxCell id="6StfZbnvzzsDaAcNII9Y-2" value="&lt;div&gt;Shelly&lt;/div&gt;&lt;div&gt;Relay&lt;br&gt;&lt;/div&gt;" style="whiteSpace=wrap;html=1;aspect=fixed;fillColor=#1ba1e2;fontColor=#ffffff;strokeColor=#006EAF;" vertex="1" parent="1">
          <mxGeometry x="160" y="160" width="80" height="80" as="geometry" />
        </mxCell>
        <mxCell id="6StfZbnvzzsDaAcNII9Y-7" value="&lt;div&gt;Garage Door&lt;/div&gt;&lt;div&gt;(Closed)&lt;br&gt;&lt;/div&gt;" style="rounded=0;whiteSpace=wrap;html=1;fillColor=#dae8fc;strokeColor=#6c8ebf;" vertex="1" parent="1">
          <mxGeometry x="160" y="320" width="280" height="160" as="geometry" />
        </mxCell>
        <mxCell id="6StfZbnvzzsDaAcNII9Y-8" value="" style="rounded=0;whiteSpace=wrap;html=1;fillColor=#f5f5f5;fontColor=#333333;strokeColor=#666666;" vertex="1" parent="1">
          <mxGeometry x="150" y="400" width="10" height="60" as="geometry" />
        </mxCell>
        <mxCell id="6StfZbnvzzsDaAcNII9Y-12" style="edgeStyle=orthogonalEdgeStyle;rounded=0;orthogonalLoop=1;jettySize=auto;html=1;exitX=0;exitY=0.25;exitDx=0;exitDy=0;entryX=0;entryY=0.75;entryDx=0;entryDy=0;endArrow=none;endFill=0;" edge="1" parent="1" source="6StfZbnvzzsDaAcNII9Y-11" target="6StfZbnvzzsDaAcNII9Y-2">
          <mxGeometry relative="1" as="geometry" />
        </mxCell>
        <mxCell id="6StfZbnvzzsDaAcNII9Y-13" style="edgeStyle=orthogonalEdgeStyle;rounded=0;orthogonalLoop=1;jettySize=auto;html=1;exitX=0;exitY=0.75;exitDx=0;exitDy=0;entryX=0;entryY=0.25;entryDx=0;entryDy=0;endArrow=none;endFill=0;" edge="1" parent="1" source="6StfZbnvzzsDaAcNII9Y-11" target="6StfZbnvzzsDaAcNII9Y-2">
          <mxGeometry relative="1" as="geometry">
            <Array as="points">
              <mxPoint x="110" y="445" />
              <mxPoint x="110" y="180" />
            </Array>
          </mxGeometry>
        </mxCell>
        <mxCell id="6StfZbnvzzsDaAcNII9Y-11" value="" style="rounded=0;whiteSpace=wrap;html=1;fillColor=#f8cecc;strokeColor=#b85450;" vertex="1" parent="1">
          <mxGeometry x="140" y="400" width="10" height="60" as="geometry" />
        </mxCell>
        <mxCell id="6StfZbnvzzsDaAcNII9Y-22" style="edgeStyle=orthogonalEdgeStyle;rounded=0;orthogonalLoop=1;jettySize=auto;html=1;exitX=0.5;exitY=0;exitDx=0;exitDy=0;entryX=0.5;entryY=1;entryDx=0;entryDy=0;" edge="1" parent="1" source="6StfZbnvzzsDaAcNII9Y-20" target="6StfZbnvzzsDaAcNII9Y-8">
          <mxGeometry relative="1" as="geometry" />
        </mxCell>
        <mxCell id="6StfZbnvzzsDaAcNII9Y-20" value="Magnet" style="rounded=0;whiteSpace=wrap;html=1;fillColor=none;strokeColor=none;" vertex="1" parent="1">
          <mxGeometry x="95" y="500" width="120" height="20" as="geometry" />
        </mxCell>
        <mxCell id="6StfZbnvzzsDaAcNII9Y-24" style="edgeStyle=orthogonalEdgeStyle;rounded=0;orthogonalLoop=1;jettySize=auto;html=1;exitX=1;exitY=0.5;exitDx=0;exitDy=0;entryX=0;entryY=0.5;entryDx=0;entryDy=0;" edge="1" parent="1" source="6StfZbnvzzsDaAcNII9Y-23" target="6StfZbnvzzsDaAcNII9Y-11">
          <mxGeometry relative="1" as="geometry" />
        </mxCell>
        <mxCell id="6StfZbnvzzsDaAcNII9Y-23" value="&lt;div&gt;Reed&lt;/div&gt;&lt;div&gt;Switch&lt;br&gt;&lt;/div&gt;" style="rounded=0;whiteSpace=wrap;html=1;fillColor=none;strokeColor=none;" vertex="1" parent="1">
          <mxGeometry x="50" y="415" width="40" height="30" as="geometry" />
        </mxCell>
        <mxCell id="6StfZbnvzzsDaAcNII9Y-25" value="&lt;div&gt;Garage Door&lt;/div&gt;&lt;div&gt;Opener&lt;br&gt;&lt;/div&gt;" style="whiteSpace=wrap;html=1;aspect=fixed;fillColor=#d5e8d4;strokeColor=#82b366;" vertex="1" parent="1">
          <mxGeometry x="750" y="160" width="80" height="80" as="geometry" />
        </mxCell>
        <mxCell id="6StfZbnvzzsDaAcNII9Y-26" style="edgeStyle=orthogonalEdgeStyle;rounded=0;orthogonalLoop=1;jettySize=auto;html=1;exitX=1;exitY=0.25;exitDx=0;exitDy=0;entryX=0;entryY=0.25;entryDx=0;entryDy=0;endArrow=none;endFill=0;" edge="1" parent="1" source="6StfZbnvzzsDaAcNII9Y-28" target="6StfZbnvzzsDaAcNII9Y-25">
          <mxGeometry relative="1" as="geometry" />
        </mxCell>
        <mxCell id="6StfZbnvzzsDaAcNII9Y-27" style="edgeStyle=orthogonalEdgeStyle;rounded=0;orthogonalLoop=1;jettySize=auto;html=1;exitX=1;exitY=0.75;exitDx=0;exitDy=0;entryX=0;entryY=0.75;entryDx=0;entryDy=0;endArrow=none;endFill=0;" edge="1" parent="1" source="6StfZbnvzzsDaAcNII9Y-28" target="6StfZbnvzzsDaAcNII9Y-25">
          <mxGeometry relative="1" as="geometry" />
        </mxCell>
        <mxCell id="6StfZbnvzzsDaAcNII9Y-28" value="&lt;div&gt;Shelly&lt;/div&gt;&lt;div&gt;Relay&lt;br&gt;&lt;/div&gt;" style="whiteSpace=wrap;html=1;aspect=fixed;fillColor=#1ba1e2;fontColor=#ffffff;strokeColor=#006EAF;" vertex="1" parent="1">
          <mxGeometry x="630" y="160" width="80" height="80" as="geometry" />
        </mxCell>
        <mxCell id="6StfZbnvzzsDaAcNII9Y-29" value="&lt;div&gt;Garage Door&lt;/div&gt;(Open)" style="rounded=0;whiteSpace=wrap;html=1;fillColor=#dae8fc;strokeColor=#6c8ebf;" vertex="1" parent="1">
          <mxGeometry x="630" y="320" width="280" height="40" as="geometry" />
        </mxCell>
        <mxCell id="6StfZbnvzzsDaAcNII9Y-30" value="" style="rounded=0;whiteSpace=wrap;html=1;fillColor=#f5f5f5;fontColor=#333333;strokeColor=#666666;" vertex="1" parent="1">
          <mxGeometry x="620" y="320" width="10" height="20" as="geometry" />
        </mxCell>
        <mxCell id="6StfZbnvzzsDaAcNII9Y-31" style="edgeStyle=orthogonalEdgeStyle;rounded=0;orthogonalLoop=1;jettySize=auto;html=1;exitX=0;exitY=0.25;exitDx=0;exitDy=0;entryX=0;entryY=0.75;entryDx=0;entryDy=0;endArrow=none;endFill=0;" edge="1" parent="1" source="6StfZbnvzzsDaAcNII9Y-33" target="6StfZbnvzzsDaAcNII9Y-28">
          <mxGeometry relative="1" as="geometry" />
        </mxCell>
        <mxCell id="6StfZbnvzzsDaAcNII9Y-32" style="edgeStyle=orthogonalEdgeStyle;rounded=0;orthogonalLoop=1;jettySize=auto;html=1;exitX=0;exitY=0.75;exitDx=0;exitDy=0;entryX=0;entryY=0.25;entryDx=0;entryDy=0;endArrow=none;endFill=0;" edge="1" parent="1" source="6StfZbnvzzsDaAcNII9Y-33" target="6StfZbnvzzsDaAcNII9Y-28">
          <mxGeometry relative="1" as="geometry">
            <Array as="points">
              <mxPoint x="580" y="445" />
              <mxPoint x="580" y="180" />
            </Array>
          </mxGeometry>
        </mxCell>
        <mxCell id="6StfZbnvzzsDaAcNII9Y-33" value="" style="rounded=0;whiteSpace=wrap;html=1;fillColor=#f8cecc;strokeColor=#b85450;" vertex="1" parent="1">
          <mxGeometry x="610" y="400" width="10" height="60" as="geometry" />
        </mxCell>
        <mxCell id="6StfZbnvzzsDaAcNII9Y-34" style="edgeStyle=orthogonalEdgeStyle;rounded=0;orthogonalLoop=1;jettySize=auto;html=1;exitX=0.5;exitY=0;exitDx=0;exitDy=0;entryX=0.5;entryY=1;entryDx=0;entryDy=0;" edge="1" parent="1" source="6StfZbnvzzsDaAcNII9Y-35" target="6StfZbnvzzsDaAcNII9Y-30">
          <mxGeometry relative="1" as="geometry" />
        </mxCell>
        <mxCell id="6StfZbnvzzsDaAcNII9Y-35" value="Magnet" style="rounded=0;whiteSpace=wrap;html=1;fillColor=none;strokeColor=none;" vertex="1" parent="1">
          <mxGeometry x="565" y="360" width="120" height="20" as="geometry" />
        </mxCell>
        <mxCell id="6StfZbnvzzsDaAcNII9Y-36" style="edgeStyle=orthogonalEdgeStyle;rounded=0;orthogonalLoop=1;jettySize=auto;html=1;exitX=1;exitY=0.5;exitDx=0;exitDy=0;entryX=0;entryY=0.5;entryDx=0;entryDy=0;" edge="1" parent="1" source="6StfZbnvzzsDaAcNII9Y-37" target="6StfZbnvzzsDaAcNII9Y-33">
          <mxGeometry relative="1" as="geometry" />
        </mxCell>
        <mxCell id="6StfZbnvzzsDaAcNII9Y-37" value="&lt;div&gt;Reed&lt;/div&gt;&lt;div&gt;Switch&lt;br&gt;&lt;/div&gt;" style="rounded=0;whiteSpace=wrap;html=1;fillColor=none;strokeColor=none;" vertex="1" parent="1">
          <mxGeometry x="520" y="415" width="40" height="30" as="geometry" />
        </mxCell>
      </root>
    </mxGraphModel>
  </diagram>
</mxfile>
